<svg aria-hidden="true" style="position: absolute; width: 0; height: 0; overflow: hidden;" version="1.1" xmlns="http://www.w3.org/2000/svg" xmlns:xlink="http://www.w3.org/1999/xlink">
<defs>
<symbol id="icon-clear" viewBox="0 0 24 24">
<path d="M18.984 6.422l-5.578 5.578 5.578 5.578-1.406 1.406-5.578-5.578-5.578 5.578-1.406-1.406 5.578-5.578-5.578-5.578 1.406-1.406 5.578 5.578 5.578-5.578z"></path>
</symbol>
<symbol id="icon-chevron-left" viewBox="0 0 24 24">
<path d="M15.707 17.293l-5.293-5.293 5.293-5.293c0.391-0.391 0.391-1.024 0-1.414s-1.024-0.391-1.414 0l-6 6c-0.391 0.391-0.391 1.024 0 1.414l6 6c0.391 0.391 1.024 0.391 1.414 0s0.391-1.024 0-1.414z"></path>
</symbol>
<symbol id="icon-chevron-right" viewBox="0 0 24 24">
<path d="M9.707 18.707l6-6c0.391-0.391 0.391-1.024 0-1.414l-6-6c-0.391-0.391-1.024-0.391-1.414 0s-0.391 1.024 0 1.414l5.293 5.293-5.293 5.293c-0.391 0.391-0.391 1.024 0 1.414s1.024 0.391 1.414 0z"></path>
</symbol>
<symbol id="icon-coin-euro" viewBox="0 0 32 32">
<path d="M15 2c-8.284 0-15 6.716-15 15s6.716 15 15 15c8.284 0 15-6.716 15-15s-6.716-15-15-15zM15 29c-6.627 0-12-5.373-12-12s5.373-12 12-12c6.627 0 12 5.373 12 12s-5.373 12-12 12z"></path>
<path d="M20.963 20.136c-0.477-0.278-1.089-0.116-1.367 0.362-0.539 0.927-1.534 1.503-2.596 1.503h-4c-1.304 0-2.415-0.836-2.828-2h4.828c0.552 0 1-0.448 1-1s-0.448-1-1-1h-5v-2h5c0.552 0 1-0.448 1-1s-0.448-1-1-1h-4.828c0.413-1.164 1.524-2 2.828-2h4c1.062 0 2.057 0.576 2.596 1.503 0.278 0.477 0.89 0.639 1.367 0.361s0.639-0.89 0.361-1.367c-0.896-1.54-2.553-2.497-4.325-2.497h-4c-2.415 0-4.435 1.72-4.899 4h-1.101c-0.552 0-1 0.448-1 1s0.448 1 1 1h1v2h-1c-0.552 0-1 0.448-1 1s0.448 1 1 1h1.101c0.465 2.279 2.485 4 4.899 4h4c1.772 0 3.429-0.957 4.325-2.497 0.278-0.477 0.116-1.090-0.362-1.367z"></path>
</symbol>
<symbol id="icon-banknote" viewBox="0 0 32 32">
<path d="M31.415 10.586l-10-10c-0.496-0.496-1.215-0.695-1.896-0.527-0.359 0.088-0.68 0.273-0.934 0.527-0.227 0.227-0.398 0.508-0.496 0.822-0.453 1.469-1.236 2.746-2.395 3.904-1.548 1.547-3.564 2.719-5.697 3.958-2.264 1.312-4.603 2.672-6.52 4.588-1.629 1.631-2.738 3.445-3.388 5.551-0.219 0.711-0.028 1.48 0.496 2.006l10 10c0.496 0.496 1.215 0.695 1.896 0.527 0.359-0.090 0.68-0.273 0.934-0.527 0.227-0.227 0.398-0.508 0.496-0.824 0.454-1.469 1.237-2.746 2.397-3.904 1.547-1.547 3.562-2.717 5.697-3.955 2.262-1.314 4.602-2.674 6.518-4.59 1.629-1.629 2.738-3.445 3.389-5.551 0.218-0.71 0.026-1.482-0.497-2.005zM12 30c-3.312-3.312-6.688-6.689-10-10 2.842-9.201 15.16-8.799 18-18 3.312 3.311 6.689 6.688 10.002 10-2.843 9.199-15.161 8.799-18.002 18zM19.562 14.9c-0.326-0.273-0.654-0.459-0.984-0.551-0.328-0.092-0.656-0.129-0.988-0.105-0.328 0.025-0.664 0.1-1 0.229-0.336 0.131-0.674 0.273-1.014 0.438-0.537-0.617-1.074-1.227-1.611-1.793 0.242-0.219 0.477-0.33 0.703-0.338 0.227-0.010 0.445 0.014 0.652 0.066 0.211 0.053 0.404 0.098 0.582 0.133 0.18 0.035 0.336-0.004 0.473-0.119 0.145-0.125 0.225-0.287 0.236-0.482 0.010-0.197-0.064-0.389-0.229-0.576-0.211-0.242-0.465-0.389-0.77-0.443-0.301-0.053-0.609-0.049-0.93 0.021-0.316 0.072-0.617 0.191-0.902 0.359s-0.514 0.34-0.684 0.508c-0.065-0.062-0.13-0.123-0.195-0.184-0.072-0.066-0.162-0.102-0.27-0.1-0.109 0-0.199 0.047-0.273 0.133-0.072 0.084-0.105 0.182-0.092 0.285 0.010 0.107 0.053 0.189 0.127 0.252 0.065 0.055 0.13 0.109 0.195 0.166-0.256 0.309-0.467 0.65-0.633 1.010-0.168 0.361-0.268 0.719-0.305 1.066-0.039 0.35-0.002 0.67 0.105 0.967 0.107 0.299 0.305 0.553 0.594 0.793 0.471 0.391 1.025 0.557 1.668 0.52 0.641-0.039 1.332-0.23 2.075-0.629 0.59 0.682 1.182 1.359 1.773 1.988-0.25 0.211-0.469 0.332-0.662 0.371-0.193 0.041-0.365 0.037-0.521-0.010-0.156-0.049-0.301-0.119-0.434-0.209-0.133-0.092-0.264-0.17-0.395-0.234-0.129-0.064-0.262-0.1-0.398-0.102s-0.281 0.064-0.441 0.201c-0.164 0.143-0.246 0.309-0.246 0.496s0.086 0.375 0.254 0.566c0.17 0.191 0.391 0.352 0.658 0.479s0.569 0.207 0.901 0.229c0.332 0.023 0.682-0.027 1.051-0.164 0.371-0.135 0.738-0.379 1.1-0.742 0.174 0.17 0.35 0.332 0.525 0.488 0.074 0.064 0.164 0.096 0.273 0.088 0.105-0.004 0.197-0.053 0.27-0.141 0.074-0.090 0.105-0.189 0.094-0.293-0.010-0.105-0.053-0.186-0.125-0.244-0.176-0.141-0.352-0.289-0.527-0.445 0.299-0.367 0.539-0.754 0.717-1.137 0.178-0.385 0.283-0.756 0.318-1.1 0.035-0.346-0.006-0.658-0.119-0.941-0.112-0.287-0.311-0.533-0.596-0.77zM13.971 15.578c-0.283 0.012-0.53-0.082-0.746-0.291-0.092-0.088-0.156-0.195-0.195-0.322-0.041-0.127-0.055-0.266-0.039-0.418 0.014-0.15 0.059-0.307 0.137-0.465 0.074-0.158 0.184-0.316 0.324-0.469 0.507 0.504 1.013 1.057 1.52 1.629-0.384 0.211-0.718 0.324-1.001 0.336zM18.688 17.58c-0.090 0.166-0.193 0.314-0.314 0.443-0.561-0.566-1.121-1.188-1.68-1.826 0.143-0.064 0.293-0.131 0.455-0.199s0.324-0.113 0.486-0.141c0.166-0.025 0.33-0.018 0.494 0.021 0.162 0.041 0.316 0.129 0.459 0.268 0.141 0.141 0.23 0.287 0.266 0.445 0.039 0.16 0.041 0.322 0.014 0.488-0.029 0.167-0.088 0.333-0.18 0.501zM14.717 22.18c0.197-0.159 0.487-0.151 0.668 0.033 0.196 0.195 0.196 0.514 0 0.709-0.016 0.016-0.033 0.027-0.051 0.041l0.002 0.002c-0.633 0.481-1.153 0.914-1.714 1.475-0.507 0.506-0.965 1.039-1.361 1.58l-0.639 0.875c-0.020 0.036-0.044 0.069-0.074 0.1-0.196 0.195-0.515 0.195-0.71 0-0.17-0.17-0.191-0.432-0.066-0.627l-0.002-0.002 0.684-0.934c0.427-0.584 0.918-1.156 1.461-1.699 0.565-0.567 1.175-1.073 1.8-1.553h0.002zM18.378 7.715c0.506-0.506 0.963-1.037 1.36-1.581l0.664-0.91c0.024-0.043 0.051-0.086 0.088-0.123 0.197-0.197 0.516-0.197 0.713 0 0.187 0.188 0.195 0.485 0.025 0.684l0.002 0.002-0.684 0.938c-0.428 0.584-0.918 1.154-1.461 1.697-0.565 0.565-1.174 1.073-1.799 1.553l-0.004-0.002c-0.199 0.183-0.508 0.179-0.699-0.014-0.197-0.197-0.197-0.518 0-0.715 0.035-0.037 0.076-0.063 0.117-0.086 0.588-0.449 1.155-0.92 1.678-1.443z"></path>
</symbol>
<symbol id="icon-calendar" viewBox="0 0 32 32">
<path d="M12.048 16.961c-0.178 0.257-0.395 0.901-0.652 1.059-0.257 0.157-0.547 0.267-0.869 0.328-0.323 0.062-0.657 0.089-1.002 0.079v1.527h2.467v6.046h1.991v-9.996h-1.584c-0.056 0.381-0.173 0.7-0.351 0.957zM23 8h2c0.553 0 1-0.448 1-1v-6c0-0.552-0.447-1-1-1h-2c-0.553 0-1 0.448-1 1v6c0 0.552 0.447 1 1 1zM7 8h2c0.552 0 1-0.448 1-1v-6c0-0.552-0.448-1-1-1h-2c-0.552 0-1 0.448-1 1v6c0 0.552 0.448 1 1 1zM30 4h-2v5c0 0.552-0.447 1-1 1h-6c-0.553 0-1-0.448-1-1v-5h-8v5c0 0.552-0.448 1-1 1h-6c-0.552 0-1-0.448-1-1v-5h-2c-1.104 0-2 0.896-2 2v24c0 1.104 0.896 2 2 2h28c1.104 0 2-0.896 2-2v-24c0-1.104-0.896-2-2-2zM30 29c0 0.553-0.447 1-1 1h-26c-0.552 0-1-0.447-1-1v-16c0-0.552 0.448-1 1-1h26c0.553 0 1 0.448 1 1v16zM15.985 17.982h4.968c-0.936 1.152-1.689 2.325-2.265 3.705-0.575 1.381-0.638 2.818-0.749 4.312h2.131c0.009-0.666-0.195-1.385-0.051-2.156 0.146-0.771 0.352-1.532 0.617-2.285 0.267-0.752 0.598-1.461 0.996-2.127 0.396-0.667 0.853-1.229 1.367-1.686v-1.742h-7.015v1.979z"></path>
</symbol>
<symbol id="icon-coin-euro" viewBox="0 0 32 32">
<path d="M15 2c-8.284 0-15 6.716-15 15s6.716 15 15 15c8.284 0 15-6.716 15-15s-6.716-15-15-15zM15 29c-6.627 0-12-5.373-12-12s5.373-12 12-12c6.627 0 12 5.373 12 12s-5.373 12-12 12z"></path>
<path d="M20.963 20.136c-0.477-0.278-1.089-0.116-1.367 0.362-0.539 0.927-1.534 1.503-2.596 1.503h-4c-1.304 0-2.415-0.836-2.828-2h4.828c0.552 0 1-0.448 1-1s-0.448-1-1-1h-5v-2h5c0.552 0 1-0.448 1-1s-0.448-1-1-1h-4.828c0.413-1.164 1.524-2 2.828-2h4c1.062 0 2.057 0.576 2.596 1.503 0.278 0.477 0.89 0.639 1.367 0.361s0.639-0.89 0.361-1.367c-0.896-1.54-2.553-2.497-4.325-2.497h-4c-2.415 0-4.435 1.72-4.899 4h-1.101c-0.552 0-1 0.448-1 1s0.448 1 1 1h1v2h-1c-0.552 0-1 0.448-1 1s0.448 1 1 1h1.101c0.465 2.279 2.485 4 4.899 4h4c1.772 0 3.429-0.957 4.325-2.497 0.278-0.477 0.116-1.090-0.362-1.367z"></path>
</symbol>
<symbol id="icon-world" viewBox="0 0 24 24">
<path d="M12 2c-4.971 0-9 4.029-9 9s4.029 9 9 9 9-4.029 9-9-4.029-9-9-9zM14 4c0 1-0.5 2-1.5 2s-1.5 1-1.5 2 0 3 0 3 1 0 1-3c0-0.553 0.447-1 1-1s1 0.447 1 1v3c-0.552 0-1 0.448-1 1s0.448 1 1 1c0.553 0 1-0.448 1-1h1v-2l1 1-1 1c0 3 0 3-2 4 0-1-1-1-3-1v-2l-2-2v-2c-1 0-1 1-1 1l-2.951-2.951c0.11-0.192 0.225-0.382 0.35-0.564l0.523-0.678c1.468-1.716 3.644-2.807 6.078-2.807 0.691 0 1.359 0.098 2 0.262v0.738z"></path>
</symbol>
<symbol id="icon-thumbs-up" viewBox="0 0 25 28">
<path d="M4 21c0-0.547-0.453-1-1-1-0.562 0-1 0.453-1 1 0 0.562 0.438 1 1 1 0.547 0 1-0.438 1-1zM6.5 13v10c0 0.547-0.453 1-1 1h-4.5c-0.547 0-1-0.453-1-1v-10c0-0.547 0.453-1 1-1h4.5c0.547 0 1 0.453 1 1zM25 13c0 0.828-0.328 1.719-0.859 2.328 0.172 0.5 0.234 0.969 0.234 1.188 0.031 0.781-0.203 1.516-0.672 2.141 0.172 0.578 0.172 1.203 0 1.828-0.156 0.578-0.453 1.094-0.844 1.469 0.094 1.172-0.172 2.125-0.766 2.828-0.672 0.797-1.703 1.203-3.078 1.219h-2.016c-2.234 0-4.344-0.734-6.031-1.313-0.984-0.344-1.922-0.672-2.469-0.688-0.531-0.016-1-0.453-1-1v-10.016c0-0.516 0.438-0.953 0.953-1 0.578-0.047 2.078-1.906 2.766-2.812 0.562-0.719 1.094-1.391 1.578-1.875 0.609-0.609 0.781-1.547 0.969-2.453 0.172-0.922 0.359-1.891 1.031-2.547 0.187-0.187 0.438-0.297 0.703-0.297 3.5 0 3.5 2.797 3.5 4 0 1.281-0.453 2.188-0.875 3-0.172 0.344-0.328 0.5-0.453 1h4.328c1.625 0 3 1.375 3 3z"></path>
</symbol>
<symbol id="icon-child" viewBox="0 0 20 28">
<path d="M18.562 8.563l-4.562 4.562v12.875c0 0.969-0.781 1.75-1.75 1.75s-1.75-0.781-1.75-1.75v-6h-1v6c0 0.969-0.781 1.75-1.75 1.75s-1.75-0.781-1.75-1.75v-12.875l-4.562-4.562c-0.578-0.594-0.578-1.531 0-2.125 0.594-0.578 1.531-0.578 2.125 0l3.563 3.563h5.75l3.563-3.563c0.594-0.578 1.531-0.578 2.125 0 0.578 0.594 0.578 1.531 0 2.125zM13.5 6c0 1.937-1.563 3.5-3.5 3.5s-3.5-1.563-3.5-3.5 1.563-3.5 3.5-3.5 3.5 1.563 3.5 3.5z"></path>
</symbol>
<symbol id="icon-thumbs-o-up" viewBox="0 0 24 28">
<path d="M4 21c0-0.547-0.453-1-1-1s-1 0.453-1 1 0.453 1 1 1 1-0.453 1-1zM22 12c0-1.062-0.953-2-2-2h-5.5c0-1.828 1.5-3.156 1.5-5 0-1.828-0.359-3-2.5-3-1 1.016-0.484 3.406-2 5-0.438 0.453-0.812 0.938-1.203 1.422-0.703 0.906-2.562 3.578-3.797 3.578h-0.5v10h0.5c0.875 0 2.312 0.562 3.156 0.859 1.719 0.594 3.5 1.141 5.344 1.141h1.891c1.766 0 3-0.703 3-2.609 0-0.297-0.031-0.594-0.078-0.875 0.656-0.359 1.016-1.25 1.016-1.969 0-0.375-0.094-0.75-0.281-1.078 0.531-0.5 0.828-1.125 0.828-1.859 0-0.5-0.219-1.234-0.547-1.609 0.734-0.016 1.172-1.422 1.172-2zM24 11.984c0 0.906-0.266 1.797-0.766 2.547 0.094 0.344 0.141 0.719 0.141 1.078 0 0.781-0.203 1.563-0.594 2.25 0.031 0.219 0.047 0.453 0.047 0.672 0 1-0.328 2-0.938 2.781 0.031 2.953-1.984 4.688-4.875 4.688h-2.016c-2.219 0-4.281-0.656-6.344-1.375-0.453-0.156-1.719-0.625-2.156-0.625h-4.5c-1.109 0-2-0.891-2-2v-10c0-1.109 0.891-2 2-2h4.281c0.609-0.406 1.672-1.813 2.141-2.422 0.531-0.688 1.078-1.359 1.672-2 0.938-1 0.438-3.469 2-5 0.375-0.359 0.875-0.578 1.406-0.578 1.625 0 3.187 0.578 3.953 2.094 0.484 0.953 0.547 1.859 0.547 2.906 0 1.094-0.281 2.031-0.75 3h2.75c2.156 0 4 1.828 4 3.984z"></path>
</symbol>
</defs>
</svg>
